<?xml version="1.0" standalone="no"?><!DOCTYPE svg PUBLIC "-//W3C//DTD SVG 1.1//EN" "http://www.w3.org/Graphics/SVG/1.1/DTD/svg11.dtd"><svg t="1527641386742" class="icon" style="" viewBox="0 0 1117 1024" version="1.1" xmlns="http://www.w3.org/2000/svg" p-id="1932" xmlns:xlink="http://www.w3.org/1999/xlink" width="34.90625" height="32"><defs><style type="text/css"></style></defs><path d="M725.643636 86.621091a35.281455 35.281455 0 0 1 27.322182-1.954909c9.216 2.978909 16.616727 9.309091 20.945455 17.780363l29.602909 58.507637h-224.628364L725.643636 86.574545z m340.712728 116.782545a107.706182 107.706182 0 0 0-86.109091-42.449454h-89.367273a41.053091 41.053091 0 0 0-4.049455-18.711273l-39.098181-77.172364a117.853091 117.853091 0 0 0-68.980364-59.112727 118.132364 118.132364 0 0 0-90.530909 6.842182L481.28 117.573818a40.866909 40.866909 0 0 0-21.643636 43.380364H379.019636a41.425455 41.425455 0 0 0 0 82.757818H980.247273c11.124364 0 17.594182 6.283636 20.48 10.053818 2.839273 3.723636 7.168 11.496727 4.375272 22.109091-28.253091 105.192727-80.802909 294.074182-115.013818 376.552727a25.134545 25.134545 0 0 1-23.505454 15.266909l-467.781818-0.279272a25.879273 25.879273 0 0 1-25.088-20.247273c-20.48-91.694545-40.820364-181.992727-61.114182-272.244364-19.968-88.436364-39.889455-176.872727-59.950546-266.798545A109.242182 109.242182 0 0 0 146.757818 23.086545H41.425455a41.425455 41.425455 0 0 0 0 82.804364h105.378909c11.915636 0 22.481455 8.471273 25.134545 20.247273 20.014545 89.972364 39.936 178.501818 59.904 266.984727 20.340364 90.205091 40.634182 180.410182 61.067636 272.058182a109.381818 109.381818 0 0 0 105.844364 85.038545l467.781818 0.232728h0.139637c44.032 0 83.223273-26.018909 99.886545-66.280728 34.257455-82.525091 83.316364-255.906909 118.551273-386.839272a107.473455 107.473455 0 0 0-18.664727-93.928728zM408.203636 760.832a131.723636 131.723636 0 0 0-131.584 131.584A131.723636 131.723636 0 0 0 408.157091 1024a131.723636 131.723636 0 0 0 131.584-131.584 131.723636 131.723636 0 0 0-131.584-131.584m0 180.363636a48.872727 48.872727 0 1 1 0.046545-97.512727 48.872727 48.872727 0 0 1-0.046545 97.512727m438.085818-180.363636a131.723636 131.723636 0 0 0-131.584 131.584A131.723636 131.723636 0 0 0 846.242909 1024a131.723636 131.723636 0 0 0 131.584-131.584 131.723636 131.723636 0 0 0-131.584-131.584m0 180.363636a48.872727 48.872727 0 1 1 0.046546-97.512727 48.872727 48.872727 0 0 1 0 97.512727" fill="#CCCCCC" p-id="1933"></path></svg>