<?xml version="1.0" standalone="no"?><!DOCTYPE svg PUBLIC "-//W3C//DTD SVG 1.1//EN" "http://www.w3.org/Graphics/SVG/1.1/DTD/svg11.dtd"><svg t="1524883992772" class="icon" style="" viewBox="0 0 1116 1024" version="1.1" xmlns="http://www.w3.org/2000/svg" p-id="13941" xmlns:xlink="http://www.w3.org/1999/xlink" width="34.875" height="32"><defs><style type="text/css"></style></defs><path d="M318.560196 928.874063a95.079398 95.079398 0 1 1 190.112258 0 95.079398 95.079398 0 0 1-190.112258 0z m461.667955 0a95.032859 95.032859 0 1 1 190.065718-0.093079 95.032859 95.032859 0 0 1-190.065718 0.093079z m255.080852-752.211608a64.037813 64.037813 0 0 0-18.848339-2.978503H933.574513l-39.558242-78.046084A174.707813 174.707813 0 0 0 659.645321 18.8018L525.891924 86.423124a172.567014 172.567014 0 0 0-80.512658 87.260828H248.798073c-5.026224-22.571468-10.098987-44.956779-15.12521-67.714402A98.66291 98.66291 0 0 0 138.221152 29.319638H27.178839a27.225378 27.225378 0 0 0 0 54.31114H138.221152c20.197973 0 38.068991 14.380584 42.490206 34.252783 21.314912 95.730946 42.536745 189.879562 63.758578 284.074717 21.221833 94.102077 42.443667 188.250693 63.758578 283.981639a98.66291 98.66291 0 0 0 95.405172 76.696451l493.035314 0.279234c39.697859 0 75.067582-23.50225 90.146252-59.802754 37.55706-90.611644 93.915921-292.917148 124.166341-405.49525a96.940963 96.940963 0 0 0-75.67259-120.908604z m-336.338135-80.047266a87.074672 87.074672 0 0 1 117.232013 38.394764l19.546426 38.62746h-285.052038a91.216652 91.216652 0 0 1 14.659819-9.4009l133.567241-67.621324z" fill="#F7B002" p-id="13942"></path></svg>