<?xml version="1.0" standalone="no"?><!DOCTYPE svg PUBLIC "-//W3C//DTD SVG 1.1//EN" "http://www.w3.org/Graphics/SVG/1.1/DTD/svg11.dtd"><svg t="1527641398031" class="icon" style="" viewBox="0 0 1024 1024" version="1.1" xmlns="http://www.w3.org/2000/svg" p-id="2178" xmlns:xlink="http://www.w3.org/1999/xlink" width="32" height="32"><defs><style type="text/css"></style></defs><path d="M251.112727 529.687273h-7.912727A243.432727 243.432727 0 0 0 0 772.840727v7.959273A243.432727 243.432727 0 0 0 243.2 1024h7.912727a243.432727 243.432727 0 0 0 243.2-243.2v-7.912727a243.432727 243.432727 0 0 0-243.2-243.2z m162.117818 251.112727a162.304 162.304 0 0 1-162.117818 162.117818h-7.912727a162.304 162.304 0 0 1-162.117818-162.117818v-7.912727a162.304 162.304 0 0 1 162.117818-162.164364h7.912727a162.304 162.304 0 0 1 162.117818 162.117818v7.959273zM251.112727 0h-7.912727A243.432727 243.432727 0 0 0 0 243.2v7.912727a243.432727 243.432727 0 0 0 243.2 243.2h7.912727a243.432727 243.432727 0 0 0 243.2-243.153454v-7.959273A243.432727 243.432727 0 0 0 251.112727 0z m162.117818 251.159273a162.304 162.304 0 0 1-162.117818 162.117818h-7.912727a162.304 162.304 0 0 1-162.117818-162.117818v-7.959273a162.304 162.304 0 0 1 162.117818-162.117818h7.912727a162.304 162.304 0 0 1 162.117818 162.117818v7.912727z m220.485819-98.210909a40.494545 40.494545 0 1 1 0-81.082182h317.812363a40.494545 40.494545 0 1 1 0 81.035636h-317.812363z m317.812363 183.714909a40.494545 40.494545 0 1 1 0 81.082182h-317.812363a40.494545 40.494545 0 1 1 0-81.082182h317.812363z m0 264.843636a40.494545 40.494545 0 1 1 0 81.082182h-317.812363a40.494545 40.494545 0 1 1 0-81.082182h317.812363z m0 264.843636a40.494545 40.494545 0 1 1 0 81.082182h-317.812363a40.494545 40.494545 0 1 1 0-81.082182h317.812363z" fill="#ffffff" p-id="2179"></path></svg>