<?xml version="1.0" standalone="no"?><!DOCTYPE svg PUBLIC "-//W3C//DTD SVG 1.1//EN" "http://www.w3.org/Graphics/SVG/1.1/DTD/svg11.dtd"><svg t="1527641405326" class="icon" style="" viewBox="0 0 1024 1024" version="1.1" xmlns="http://www.w3.org/2000/svg" p-id="2301" xmlns:xlink="http://www.w3.org/1999/xlink" width="32" height="32"><defs><style type="text/css"></style></defs><path d="M771.351273 553.797818c112.64 0 204.8 94.021818 204.8 208.989091v8.145455c0 114.967273-92.16 208.989091-204.8 208.989091H763.345455c-112.64 0-204.8-94.021818-204.8-208.989091v-8.192c0-114.920727 92.16-208.989091 204.8-208.989091h8.005818z m0-546.210909c112.64 0 204.8 94.021818 204.8 208.989091v8.145455c0 114.967273-92.16 208.989091-204.8 208.98909H763.345455c-112.64 0-204.8-94.021818-204.8-208.98909v-8.145455c0-114.967273 92.16-208.989091 204.8-208.989091h8.005818z m-535.272728 546.210909c112.64 0 204.8 94.021818 204.8 208.989091v8.145455c0 114.967273-92.16 208.989091-204.8 208.989091H228.072727c-112.64 0-204.8-94.021818-204.8-208.989091v-8.192c0-114.920727 92.16-208.989091 204.8-208.989091h8.005818z m0-546.210909c112.64 0 204.8 94.021818 204.8 208.989091v8.145455c0 114.967273-92.16 208.989091-204.8 208.98909H228.072727c-112.64 0-204.8-94.021818-204.8-208.98909v-8.145455C23.272727 101.608727 115.432727 7.586909 228.072727 7.586909h8.005818z" fill="#F7B002" p-id="2302"></path></svg>