<?xml version="1.0" standalone="no"?><!DOCTYPE svg PUBLIC "-//W3C//DTD SVG 1.1//EN" "http://www.w3.org/Graphics/SVG/1.1/DTD/svg11.dtd"><svg t="1527577383074" class="icon" style="" viewBox="0 0 1024 1024" version="1.1" xmlns="http://www.w3.org/2000/svg" p-id="1686" xmlns:xlink="http://www.w3.org/1999/xlink" width="32" height="32"><defs><style type="text/css"></style></defs><path d="M713.173333 502.101333l265.301334-262.229333a141.226667 141.226667 0 0 0 1.024-199.338667C926.592-12.970667 834.090667-13.653333 779.989333 39.338667L514.602667 301.738667 252.885333 40.021333C199.722667-13.312 106.112-13.141333 53.546667 39.850667A140.202667 140.202667 0 0 0 11.989333 139.434667c0 37.717333 14.677333 73.130667 41.386667 99.84l253.610667 253.696L41.685333 755.2a141.226667 141.226667 0 0 0-0.938666 199.338667c52.821333 53.589333 145.408 54.101333 199.424 1.109333l265.386666-262.4 261.802667 261.802667c26.453333 26.624 62.037333 41.386667 99.84 41.386666a139.946667 139.946667 0 0 0 99.584-41.216c26.624-26.624 41.301333-62.037333 41.386667-99.584 0-37.802667-14.677333-73.216-41.301334-99.84L713.173333 502.101333z" fill="#CCCCCC" p-id="1687"></path></svg>