<?xml version="1.0" standalone="no"?><!DOCTYPE svg PUBLIC "-//W3C//DTD SVG 1.1//EN" "http://www.w3.org/Graphics/SVG/1.1/DTD/svg11.dtd"><svg t="1527641372824" class="icon" style="" viewBox="0 0 1024 1024" version="1.1" xmlns="http://www.w3.org/2000/svg" p-id="1809" xmlns:xlink="http://www.w3.org/1999/xlink" width="32" height="32"><defs><style type="text/css"></style></defs><path d="M923.589758 420.095407L556.529652 26.238517a82.344282 82.344282 0 0 0-120.539003 0L68.930542 420.095407c-45.312616 48.708737-16.468856 124.819045 44.847395 136.263504v382.412431c0 46.615238 38.148199 84.716914 84.763436 84.716914H326.849583c31.16987 0 56.477943-25.261551 56.477943-56.477943v-173.760393c0-31.076825 25.44764-56.477943 56.524465-56.477942h112.955885c31.076825 0 56.524465 25.401118 56.524465 56.477942v173.667349c0 31.262914 25.308073 56.570987 56.524465 56.570987h128.168643a84.949525 84.949525 0 0 0 84.716915-84.716914v-382.412431c61.409295-11.44446 90.253055-87.554768 44.893916-136.263504" fill="#F7B002" p-id="1810"></path></svg>