<?xml version="1.0" standalone="no"?><!DOCTYPE svg PUBLIC "-//W3C//DTD SVG 1.1//EN" "http://www.w3.org/Graphics/SVG/1.1/DTD/svg11.dtd"><svg t="1527641360639" class="icon" style="" viewBox="0 0 1024 1024" version="1.1" xmlns="http://www.w3.org/2000/svg" p-id="1686" xmlns:xlink="http://www.w3.org/1999/xlink" width="32" height="32"><defs><style type="text/css"></style></defs><path d="M455.450511 683.352863h103.138821c50.173126 0 90.991152 40.818026 90.991152 91.037695v158.524739c0 6.748704 5.492049 12.194211 12.194211 12.19421h117.008571a37.932373 37.932373 0 0 0 37.88583-37.932373v-346.929948c0-21.735482 17.593174-39.421742 39.421742-39.421742h45.798105a9.075844 9.075844 0 0 0 8.936215-5.864392 9.122387 9.122387 0 0 0-1.768626-10.51867l-394.915564-423.772093c-4.700822-5.026621-9.448186-5.119707-14.288636 0l-394.869021 423.772093a9.075844 9.075844 0 0 0-1.861712 10.51867 9.075844 9.075844 0 0 0 8.982759 5.864392h45.798104c21.782025 0 39.421742 17.68626 39.421742 39.421742v346.929948c0 20.944255 17.034661 37.932373 37.932373 37.932373h117.055114a12.101125 12.101125 0 0 0 12.101125-12.101125v-158.617824c0-50.219669 40.864569-91.037695 91.037695-91.037695M778.783266 1023.952992h-117.008571a91.177323 91.177323 0 0 1-91.084238-91.037695v-158.524739a12.287296 12.287296 0 0 0-12.101125-12.147668H455.450511a12.287296 12.287296 0 0 0-12.147667 12.101125v158.617824A91.084238 91.084238 0 0 1 352.311691 1023.952992H235.256577a116.915486 116.915486 0 0 1-116.8224-116.775858v-307.508206h-6.329819c-35.837947 0-66.975073-20.385742-81.26371-53.24495a87.500443 87.500443 0 0 1 16.429605-95.738517L442.185817 26.913368c33.464265-35.931033 96.29703-35.837947 129.66821 0l394.915563 423.772093h0.046543c24.388421 26.20359 30.671698 62.925851 16.383062 95.785059a87.500443 87.500443 0 0 1-81.263709 53.198408h-6.376363v307.508206A116.868943 116.868943 0 0 1 778.783266 1023.952992" fill="#CCCCCC" p-id="1687"></path></svg>