<?xml version="1.0" standalone="no"?><!DOCTYPE svg PUBLIC "-//W3C//DTD SVG 1.1//EN" "http://www.w3.org/Graphics/SVG/1.1/DTD/svg11.dtd"><svg t="1527497553447" class="icon" style="" viewBox="0 0 1137 1024" version="1.1" xmlns="http://www.w3.org/2000/svg" p-id="1686" xmlns:xlink="http://www.w3.org/1999/xlink" width="35.53125" height="32"><defs><style type="text/css"></style></defs><path d="M1114.624 914.318222l-178.574222-131.640889a504.832 504.832 0 0 0 80.896-274.147555C1016.945778 228.067556 788.878222 0 508.472889 0S0 228.067556 0 508.529778c0 280.348444 228.067556 508.472889 508.472889 508.472889 138.467556 0 264.078222-55.751111 355.84-145.863111l182.784 134.769777a56.718222 56.718222 0 0 0 79.530667-12.060444 56.832 56.832 0 0 0-12.003556-79.530667m-606.151111-11.093333A395.150222 395.150222 0 0 1 113.777778 508.529778 395.150222 395.150222 0 0 1 508.472889 113.777778a395.150222 395.150222 0 0 1 394.695111 394.752 395.150222 395.150222 0 0 1-394.695111 394.695111" fill="#ffffff" p-id="1687"></path></svg>